<?xml version="1.0" encoding="utf-8"?>
<!-- Generator: Adobe Illustrator 16.0.0, SVG Export Plug-In . SVG Version: 6.00 Build 0)  -->
<svg version="1.2" baseProfile="tiny" id="Layer_1" xmlns="http://www.w3.org/2000/svg" xmlns:xlink="http://www.w3.org/1999/xlink"
	 x="0px" y="0px" width="1025px" height="115px" viewBox="0 0 1025 115" overflow="scroll" xml:space="preserve">
<path fill="#14192E" d="M25.174,57.421c0-20.303,14.097-36.654,33.835-36.654c11.838,0,20.856,5.075,28.755,12.969l11.84-13.533
	C89.455,10.618,78.176,4.415,59.009,4.415C27.994,4.415,6,28.662,6,57.983c0,29.889,22.556,53.007,52.439,53.007
	c19.176,0,31.015-7.332,41.731-18.046L88.326,81.104c-9.02,8.459-16.917,13.531-29.886,13.531
	C39.271,94.073,25.174,77.718,25.174,57.421 M137.385,108.733h71.053V92.383h-53.007V6.105h-18.046V108.733z M302.604,68.137
	h-35.525l17.485-41.166L302.604,68.137z M320.086,108.733h19.17L293.583,4.979h-16.917l-45.11,103.755h18.607l10.717-24.81h49.058
	L320.086,108.733z M387.188,32.61c0-6.768,6.205-12.407,16.915-12.407c9.589,0,18.613,3.948,28.194,10.714l9.586-13.534
	c-10.708-8.458-22.554-12.969-37.212-12.969c-20.305,0-34.963,11.842-34.963,29.886c0,19.172,12.408,25.373,34.395,31.018
	c19.177,4.51,23.123,8.457,23.123,15.785c0,7.891-7.328,12.97-18.046,12.97c-12.967,0-22.554-5.079-32.704-13.536L365.761,93.51
	c12.406,11.278,27.063,16.351,42.859,16.351c21.427,0,36.651-11.277,36.651-31.015c0-17.477-11.278-24.811-33.27-30.448
	C392.265,44.45,387.188,41.066,387.188,32.61 M503.351,32.61c0-6.768,6.201-12.407,16.917-12.407
	c9.588,0,18.608,3.948,28.195,10.714l9.588-13.534C547.332,8.925,535.494,4.415,520.83,4.415c-20.298,0-34.962,11.842-34.962,29.886
	c0,19.172,12.405,25.373,34.399,31.018c19.168,4.51,23.119,8.457,23.119,15.785c0,7.891-7.332,12.97-18.047,12.97
	c-12.968,0-22.555-5.079-32.704-13.536L481.924,93.51c12.403,11.278,27.067,16.351,42.854,16.351
	c21.426,0,36.651-11.277,36.651-31.015c0-17.477-11.275-24.811-33.271-30.448C507.86,44.45,503.351,41.066,503.351,32.61
	 M664.62,41.066c0,11.281-8.458,18.608-21.985,18.608h-20.868V22.458h20.868C656.162,22.458,664.62,28.662,664.62,41.066
	 M683.229,40.501c0-20.863-15.221-34.396-39.472-34.396h-40.599V109.3h18.043V76.027h20.303
	C664.62,76.027,683.229,63.62,683.229,40.501 M770.07,68.137h-35.523l17.477-41.166L770.07,68.137z M787.549,108.733h19.172
	L761.051,4.979h-16.916l-45.681,103.755h18.608l10.717-24.81h49.059L787.549,108.733z M851.272,32.61
	c0-6.768,6.199-12.407,16.917-12.407c9.58,0,18.606,3.948,28.195,10.714l9.58-13.534C895.254,8.925,883.408,4.415,868.75,4.415
	c-20.298,0-34.962,11.842-34.962,29.886c0,19.172,12.406,25.373,34.401,31.018c19.168,4.51,23.115,8.457,23.115,15.785
	c0,7.891-7.329,12.97-18.043,12.97c-12.969,0-22.558-5.079-32.703-13.536L829.84,93.51c12.407,11.278,27.068,16.351,42.857,16.351
	c21.428,0,36.653-11.277,36.653-31.015c0-17.477-11.275-24.811-33.271-30.448C855.78,44.45,851.272,41.066,851.272,32.61
	 M1008.033,30.917l9.585-13.534C1006.904,8.925,995.064,4.415,980.4,4.415c-20.299,0-34.963,11.842-34.963,29.886
	c0,19.172,12.404,25.373,34.4,31.018c19.166,4.51,23.116,8.457,23.116,15.785c0,7.891-7.329,12.97-18.046,12.97
	c-12.967,0-22.554-5.079-32.703-13.536L941.492,93.51c12.403,11.278,27.067,16.351,42.854,16.351
	c21.428,0,36.653-11.277,36.653-31.015c0-17.477-11.278-24.811-33.271-30.448c-19.737-4.51-24.245-8.458-24.245-16.355
	c0-6.765,6.204-12.404,16.917-12.404C989.425,20.203,999.004,24.151,1008.033,30.917"/>
</svg>
